<svg xmlns="http://www.w3.org/2000/svg" width="430" height="430" fill="none" viewBox="0 0 430 430"><path stroke="#a5e830" stroke-linecap="round" stroke-linejoin="round" stroke-width="7" d="M123.38 123.73 87.215 87.566m61.909 11.733L127.496 50m-28.81 100L50 127.671M311.545 312.17l36.252 36.252M285.801 336.6l21.629 49.3m28.809-100 48.686 22.329"/><path fill="#a5e830" fill-rule="evenodd" d="m244.934 105.299-48.632 48.804c-5.847 5.868-15.345 5.885-21.213.038-5.868-5.848-5.885-15.345-.037-21.214l48.632-48.804.002-.002c33.078-33.184 86.999-31.667 120.457 1.689l.017.016.258.258c33.355 33.356 34.986 87.353 1.904 120.447l-.011.01-48.613 48.786c-5.847 5.868-15.345 5.885-21.213.037s-5.885-15.345-.038-21.213l48.651-48.823c20.618-20.618 20.524-55.614-1.894-78.031l-.241-.242-.01-.009c-22.489-22.41-57.389-22.44-78.019-1.747m-91.008 69.346c5.863 5.853 5.871 15.351.018 21.214l-48.718 48.804-.009.009c-20.618 20.618-20.524 55.613 1.893 78.03l.246.246c22.489 22.417 57.394 22.448 78.025 1.753l.001-.001 48.631-48.803c5.847-5.868 15.345-5.885 21.213-.037s5.885 15.345.037 21.213l-48.632 48.804-.002.002c-33.078 33.184-86.999 31.667-120.457-1.688l-.016-.016-.258-.259c-33.356-33.356-34.987-87.354-1.904-120.448l.01-.009m0 0 48.708-48.795c5.853-5.863 15.351-5.871 21.214-.019" clip-rule="evenodd"/><path stroke="#a5e830" stroke-linecap="square" stroke-linejoin="round" stroke-width="7" d="m244.934 105.299-48.632 48.804c-5.847 5.868-15.345 5.885-21.213.038-5.868-5.848-5.885-15.345-.037-21.214l48.632-48.804.002-.002c33.078-33.184 86.999-31.667 120.457 1.689l.017.016.258.258c33.355 33.356 34.986 87.353 1.904 120.447l-.011.01-48.613 48.786c-5.847 5.868-15.345 5.885-21.213.037s-5.885-15.345-.038-21.213l48.651-48.823c20.618-20.618 20.524-55.614-1.894-78.031l-.241-.242-.01-.009c-22.489-22.41-57.389-22.44-78.019-1.747Zm-91.008 69.346c5.863 5.853 5.871 15.351.018 21.214l-48.718 48.804-.009.009c-20.618 20.618-20.524 55.613 1.893 78.03l.246.246c22.489 22.417 57.394 22.448 78.025 1.753l.001-.001 48.631-48.803c5.847-5.868 15.345-5.885 21.213-.037s5.885 15.345.037 21.213l-48.632 48.804-.002.002c-33.078 33.184-86.999 31.667-120.457-1.688l-.016-.016-.258-.259c-33.356-33.356-34.987-87.354-1.904-120.448l.01-.009m0 0 48.708-48.795c5.853-5.863 15.351-5.871 21.214-.019" clip-rule="evenodd"/><path fill="#a5e830" d="m108.271 323.856-21.217 21.217q-.45-.437-.896-.881l-.016-.016-.258-.258c-33.356-33.356-34.986-87.353-1.905-120.447l.011-.011 48.613-48.785c5.848-5.868 15.345-5.885 21.213-.037s5.885 15.344.038 21.213l-48.651 48.823c-20.618 20.618-20.523 55.613 1.894 78.03l.242.242.009.01q.458.456.923.9M345.218 86.91l-21.216 21.215a63 63 0 0 0-.811-.826l-.245-.245c-22.49-22.417-57.394-22.449-78.025-1.754l-.002.002-48.63 48.803c-5.848 5.868-15.345 5.885-21.214.037s-5.885-15.345-.037-21.213l48.632-48.804.002-.002c33.078-33.185 86.999-31.667 120.457 1.688l.017.016.258.258q.41.411.814.825" opacity=".5" style="mix-blend-mode:multiply"/><path fill="#a5e830" fill-rule="evenodd" d="M280.607 149.393c5.857 5.858 5.857 15.356 0 21.214l-110 110c-5.858 5.857-15.356 5.857-21.214 0s-5.857-15.356 0-21.214l110-110c5.858-5.857 15.356-5.857 21.214 0" clip-rule="evenodd"/><path stroke="#a5e830" stroke-linecap="square" stroke-linejoin="round" stroke-width="7" d="M280.607 149.393c5.857 5.858 5.857 15.355 0 21.213l-110 110c-5.858 5.858-15.356 5.858-21.214 0s-5.857-15.355 0-21.213l110-110c5.858-5.858 15.356-5.858 21.214 0Z" clip-rule="evenodd"/></svg>